<?xml version="1.0" encoding="iso-8859-1"?>
<!-- Generator: Adobe Illustrator 19.0.0, SVG Export Plug-In . SVG Version: 6.00 Build 0)  -->
<svg version="1.1" id="Capa_1" xmlns="http://www.w3.org/2000/svg" xmlns:xlink="http://www.w3.org/1999/xlink" x="0px" y="0px"
	 viewBox="0 0 512 512" style="enable-background:new 0 0 512 512;" xml:space="preserve">
<g>
	<path style="fill:#0071BC;" d="M459.034,260.414V136.828c0-14.627,11.855-26.483,26.483-26.483S512,122.2,512,136.828v123.586
		H459.034z"/>
	<path style="fill:#0071BC;" d="M353.103,375.172V30.897c0-14.627,11.855-26.483,26.483-26.483s26.483,11.855,26.483,26.483V348.69
		c0,14.627,11.855,26.483,26.483,26.483H353.103z"/>
</g>
<path style="fill:#CCCCCC;" d="M406.069,110.345V348.69c0,14.627,11.855,26.483,26.483,26.483s26.483-11.855,26.483-26.483V136.828
	c0-14.627,11.855-26.483,26.483-26.483H406.069z"/>
<path style="fill:#E6E6E6;" d="M326.621,507.586c14.627,0,26.483-11.855,26.483-26.483l0,0V30.897
	c0-14.627,11.855-26.483,26.483-26.483H61.793c-14.627,0-26.483,11.855-26.483,26.483v476.69H326.621z"/>
<path style="fill:#0071BC;" d="M326.621,507.586c-14.627,0-26.483-11.855-26.483-26.483l0,0v-17.655H0v17.655
	c0,14.627,11.855,26.483,26.483,26.483l0,0H326.621z"/>
<g>
	<path style="fill:#999999;" d="M79.448,233.931h203.034v17.655H79.448V233.931z"/>
	<path style="fill:#999999;" d="M132.414,198.621h185.379v17.655H132.414V198.621z"/>
</g>
<path style="fill:#FBB03B;" d="M220.69,83.862v-1.289c-0.044-10.973-7.186-20.648-17.655-23.914V48.552h-17.655v10.108
	c-13.241,4.122-20.63,18.194-16.516,31.426c2.039,6.541,6.656,11.97,12.791,15.025l17.205,8.607
	c3.725,1.863,5.235,6.391,3.372,10.116c-1.28,2.551-3.884,4.167-6.735,4.167h-2.578c-4.158-0.009-7.53-3.381-7.539-7.539v-1.289
	h-17.655v1.289c0.044,10.973,7.186,20.648,17.655,23.914v10.108h17.655v-10.108c13.241-4.122,20.63-18.194,16.516-31.426
	c-2.039-6.541-6.656-11.97-12.791-15.025l-17.205-8.607c-3.725-1.863-5.235-6.391-3.372-10.116c1.28-2.551,3.884-4.167,6.735-4.167
	h2.578c4.158,0.009,7.53,3.381,7.539,7.539v1.289H220.69z"/>
<g>
	<path style="fill:#999999;" d="M97.103,198.621h17.655v17.655H97.103V198.621z"/>
	<path style="fill:#999999;" d="M79.448,313.379h203.034v17.655H79.448V313.379z"/>
	<path style="fill:#999999;" d="M132.414,278.069h185.379v17.655H132.414V278.069z"/>
	<path style="fill:#999999;" d="M97.103,278.069h17.655v17.655H97.103V278.069z"/>
	<path style="fill:#999999;" d="M79.448,392.828h203.034v17.655H79.448V392.828z"/>
	<path style="fill:#999999;" d="M132.414,357.517h185.379v17.655H132.414V357.517z"/>
	<path style="fill:#999999;" d="M97.103,357.517h17.655v17.655H97.103V357.517z"/>
</g>
<g>
</g>
<g>
</g>
<g>
</g>
<g>
</g>
<g>
</g>
<g>
</g>
<g>
</g>
<g>
</g>
<g>
</g>
<g>
</g>
<g>
</g>
<g>
</g>
<g>
</g>
<g>
</g>
<g>
</g>
</svg>
